# xmcd CD database file
#
# Track frame offsets:
#	150
#	27837
#	53350
#	72000
#	100250
#	129337
#	155080
#	184805
#	198782
#	219800
#
# Disc length: 3220 seconds
#
# Revision: 0
# Processed by: cddbd v1.4PL0 Copyright (c) Steve Scherf et al.
# Submitted via: CDex 1.50beta10
#
DISCID=7a0c920a
DTITLE=Gianni Basso Quartet - Gianni Basso Quartet
DYEAR=1900
DGENRE=Jazz
TTITLE0=Mister Tu
TTITLE1=Miss Bo
TTITLE2=Fill Bossa
TTITLE3=Jack La Monella
TTITLE4=To Love
TTITLE5=Ja-Jazz
TTITLE6=Three Sons
TTITLE7=Sonny Side
TTITLE8=Svetlana
TTITLE9=Oscar My Friend
EXTD=
EXTT0=
EXTT1=
EXTT2=
EXTT3=
EXTT4=
EXTT5=
EXTT6=
EXTT7=
EXTT8=
EXTT9=
PLAYORDER=
